<?xml version="1.0" encoding="UTF-8"?>
<svg width="19px" height="18px" viewBox="0 0 19 18" version="1.1" xmlns="http://www.w3.org/2000/svg" xmlns:xlink="http://www.w3.org/1999/xlink">
    <!-- Generator: Sketch 47.1 (45422) - http://www.bohemiancoding.com/sketch -->
    <title>Imported Layers Copy</title>
    <desc>Created with Sketch.</desc>
    <defs></defs>
    <g id="Integrate" stroke="none" stroke-width="1" fill="none" fill-rule="evenodd">
        <g id="Integrate-from-reviews-PG-2" transform="translate(-633.000000, -666.000000)" fill="#FFFFFF">
            <g id="Group-17" transform="translate(395.000000, 166.000000)">
                <g id="Group-40" transform="translate(95.000000, 141.000000)">
                    <g id="Group-37" transform="translate(133.000000, 348.000000)">
                        <g id="Group-36">
                            <path d="M27.6988074,11 L11.8616322,11 C11.3189498,11 10.8791209,11.4446484 10.8791209,11.9934281 L10.8791209,28.0065719 C10.8791209,28.5552167 11.3189498,29 11.8616322,29 L20.3878026,29 L20.3878026,22.0294799 L18.067862,22.0294799 L18.067862,19.3128958 L20.3878026,19.3128958 L20.3878026,17.3095161 C20.3878026,14.9845707 21.7922002,13.7186074 23.843401,13.7186074 C24.8259123,13.7186074 25.6704184,13.7925918 25.9164798,13.8256386 L25.9164798,16.2553223 L24.4938728,16.2559968 C23.3782923,16.2559968 23.1623132,16.7919624 23.1623132,17.5784768 L23.1623132,19.3128958 L25.8228311,19.3128958 L25.4763841,22.0294799 L23.1623132,22.0294799 L23.1623132,29 L27.6988074,29 C28.2414231,29 28.6813187,28.5552167 28.6813187,28.0065719 L28.6813187,11.9934281 C28.6813187,11.4446484 28.2414231,11 27.6988074,11" id="Imported-Layers-Copy"></path>
                        </g>
                    </g>
                </g>
            </g>
        </g>
    </g>
</svg>