<?xml version="1.0" encoding="UTF-8"?>
<svg width="102px" height="87px" viewBox="0 0 102 87" version="1.1" xmlns="http://www.w3.org/2000/svg" xmlns:xlink="http://www.w3.org/1999/xlink">
    <!-- Generator: Sketch 47.1 (45422) - http://www.bohemiancoding.com/sketch -->
    <title>GMB</title>
    <desc>Created with Sketch.</desc>
    <defs>
        <filter x="-11.8%" y="-8.8%" width="123.7%" height="120.0%" filterUnits="objectBoundingBox" id="filter-1">
            <feOffset dx="0" dy="2" in="SourceAlpha" result="shadowOffsetOuter1"></feOffset>
            <feGaussianBlur stdDeviation="2" in="shadowOffsetOuter1" result="shadowBlurOuter1"></feGaussianBlur>
            <feColorMatrix values="0 0 0 0 0   0 0 0 0 0   0 0 0 0 0  0 0 0 0.191179801 0" type="matrix" in="shadowBlurOuter1" result="shadowMatrixOuter1"></feColorMatrix>
            <feMerge>
                <feMergeNode in="shadowMatrixOuter1"></feMergeNode>
                <feMergeNode in="SourceGraphic"></feMergeNode>
            </feMerge>
        </filter>
        <filter x="-7.5%" y="-11.9%" width="115.1%" height="133.3%" filterUnits="objectBoundingBox" id="filter-2">
            <feOffset dx="0" dy="2" in="SourceAlpha" result="shadowOffsetOuter1"></feOffset>
            <feGaussianBlur stdDeviation="2" in="shadowOffsetOuter1" result="shadowBlurOuter1"></feGaussianBlur>
            <feColorMatrix values="0 0 0 0 0   0 0 0 0 0   0 0 0 0 0  0 0 0 0.0903532609 0" type="matrix" in="shadowBlurOuter1" result="shadowMatrixOuter1"></feColorMatrix>
            <feMerge>
                <feMergeNode in="shadowMatrixOuter1"></feMergeNode>
                <feMergeNode in="SourceGraphic"></feMergeNode>
            </feMerge>
        </filter>
        <polygon id="path-3" points="26.4073419 28.4859565 26.4073419 0.0720948148 5.8974359e-05 0.0720948148 5.8974359e-05 28.4859565 26.4073419 28.4859565"></polygon>
        <polygon id="path-5" points="23.0654615 0.00688567901 23.0654615 12.1678141 7.86324786e-05 12.1678141 7.86324786e-05 0.00688567901 23.0654615 0.00688567901"></polygon>
        <path d="M10.3173675,0.0702222222 L6.74135897,0.0702222222 L0.103991453,0.0702222222 L0.103991453,4.41541728 L6.84004274,4.41541728 C6.40284615,5.91934321 5.48382906,7.20558025 4.25480342,8.09350123 L7.73035897,10.7828173 C10.0213162,8.68122222 11.4345385,5.63416296 11.4345385,2.24262469 C11.4345385,1.49943951 11.3641624,0.773809877 11.2342222,0.0702222222 L10.3173675,0.0702222222 Z" id="path-7"></path>
        <path d="M0.175350427,6.4805358 L4.1242735,9.40821728 C5.13391453,6.70895309 7.8168547,4.77764691 10.8646496,4.77764691 C12.5581966,4.77764691 14.0832735,5.37356049 15.2651197,6.36622963 L18.4817778,3.19374568 C16.4731111,1.28857778 13.7612735,0.122108642 10.7193761,0.122108642 C6.18562393,0.122108642 2.14293162,2.71135802 0.175350427,6.4805358 Z" id="path-9"></path>
        <path d="M0.0896410256,5.16855062 C0.0896410256,7.06650123 0.577752137,8.85521728 1.42894872,10.4324864 L5.2367265,7.48685926 C5.00495726,6.80531358 4.87717949,6.07909877 4.87717949,5.32401481 C4.87717949,4.49812346 5.02874359,3.70617284 5.30376068,2.97118025 L1.35483761,0.0434987654 C0.549641026,1.5866321 0.0896410256,3.32599753 0.0896410256,5.16855062 Z" id="path-11"></path>
        <path d="M0.0528803419,3.02014074 C2.04660684,6.71382963 6.04487179,9.24007407 10.5229915,9.24007407 C13.4962821,9.24007407 16.1550427,8.12588148 18.1491624,6.29639753 L14.6736068,3.60708148 C13.5546667,4.41541728 12.1799744,4.89468395 10.6680684,4.89468395 C7.54930769,4.89468395 4.81309402,2.87247901 3.86065812,0.0745135802 L0.0528803419,3.02014074 Z" id="path-13"></path>
    </defs>
    <g id="Integrate" stroke="none" stroke-width="1" fill="none" fill-rule="evenodd">
        <g id="Integrate-1" transform="translate(-435.000000, -348.000000)">
            <g id="Group-17" transform="translate(328.000000, 307.000000)">
                <g id="GMB" transform="translate(112.000000, 43.000000)">
                    <g id="Page-1-Copy-2" filter="url(#filter-1)">
                        <g id="Group-23" transform="translate(0.000000, 0.123084)">
                            <path d="M79.6127701,78.6819714 L12.3497615,78.6819714 C8.9827188,78.6819714 6.25318889,75.9733442 6.25318889,72.6323269 L6.25318889,28.6810183 L85.7095393,28.6810183 L85.7095393,72.6323269 C85.7095393,75.9733442 82.9798128,78.6819714 79.6127701,78.6819714" id="Fill-1" fill="#4E8DF5"></path>
                            <path d="M6.25322821,39.1846242 L6.25322821,28.6809402 L85.7093821,28.6809402 L85.7093821,72.632444 C85.7093821,75.9734612 82.9798521,78.6818933 79.6128094,78.6818933 L45.9813051,78.6818933 L6.25322821,39.1846242 Z" id="Fill-3" fill="#487FE6"></path>
                            <g id="Group-2" filter="url(#filter-2)">
                                <polygon id="Fill-5" fill="#84B0F8" points="68.8689393 28.4859565 45.8034778 28.4859565 45.8034778 0.0720948148 65.527059 0.0720948148"></polygon>
                                <path d="M57.3361299,40.4517647 L57.3361299,40.4517647 C50.9668991,40.4517647 45.8034974,35.3282733 45.8034974,29.0082733 L45.8034974,28.2908363 L68.868959,28.2908363 L68.868959,29.0082733 C68.868959,35.3282733 63.7055573,40.4517647 57.3361299,40.4517647" id="Fill-7" fill="#7DA5E5"></path>
                                <g id="Group-11" transform="translate(65.461538, -0.000000)">
                                    <mask id="mask-4" fill="white">
                                        <use xlink:href="#path-3"></use>
                                    </mask>
                                    <g id="Clip-10"></g>
                                    <path d="M26.4074009,28.4859565 L3.34193932,28.4859565 L5.8974359e-05,0.0720948148 L14.2170077,0.0720948148 C16.7352128,0.0720948148 18.9438026,1.73928741 19.6157171,4.14732444 L26.4074009,28.4859565 Z" id="Fill-9" fill="#495AB9" mask="url(#mask-4)"></path>
                                </g>
                                <g id="Group-14" transform="translate(68.803419, 28.283951)">
                                    <mask id="mask-6" fill="white">
                                        <use xlink:href="#path-5"></use>
                                    </mask>
                                    <g id="Clip-13"></g>
                                    <path d="M11.5327111,12.1678141 L11.5327111,12.1678141 C5.16348034,12.1678141 7.86324786e-05,7.04432272 7.86324786e-05,0.724322716 L7.86324786e-05,0.00688567901 L23.0655402,0.00688567901 L23.0655402,0.724322716 C23.0655402,7.04432272 17.9021385,12.1678141 11.5327111,12.1678141" id="Fill-12" fill="#4958AD" mask="url(#mask-6)"></path>
                                </g>
                                <polygon id="Fill-15" fill="#495AB9" points="23.000059 28.4859565 46.0655205 28.4859565 46.0655205 0.0720948148 26.3419393 0.0720948148"></polygon>
                                <path d="M34.5326915,40.4517647 L34.5326915,40.4517647 C40.9021188,40.4517647 46.0655205,35.3282733 46.0655205,29.0082733 L46.0655205,28.2908363 L23.000059,28.2908363 L23.000059,29.0082733 C23.000059,35.3282733 28.1634607,40.4517647 34.5326915,40.4517647" id="Fill-17" fill="#4958AD"></path>
                                <path d="M5.8974359e-05,28.4859565 L23.0655205,28.4859565 L26.4074009,0.0720948148 L12.1904521,0.0720948148 C9.67224701,0.0720948148 7.46365726,1.73928741 6.79154615,4.14732444 L5.8974359e-05,28.4859565 Z" id="Fill-19" fill="#84B0F8"></path>
                                <path d="M11.5326915,40.4517647 L11.5326915,40.4517647 C17.9021188,40.4517647 23.0655205,35.3282733 23.0655205,29.0082733 L23.0655205,28.2908363 L5.8974359e-05,28.2908363 L5.8974359e-05,29.0082733 C5.8974359e-05,35.3282733 5.16346068,40.4517647 11.5326915,40.4517647" id="Fill-21" fill="#7DA5E5"></path>
                            </g>
                        </g>
                        <g id="Group-26" transform="translate(67.820513, 58.836664)">
                            <mask id="mask-8" fill="white">
                                <use xlink:href="#path-7"></use>
                            </mask>
                            <g id="Clip-25"></g>
                            <polygon id="Fill-24" fill="#FFFFFF" mask="url(#mask-8)" points="-6.70361538 17.5381951 18.2421453 17.5381951 18.2421453 -6.68496049 -6.70361538 -6.68496049"></polygon>
                        </g>
                        <g id="Group-29" transform="translate(57.205128, 49.473701)">
                            <mask id="mask-10" fill="white">
                                <use xlink:href="#path-9"></use>
                            </mask>
                            <g id="Clip-28"></g>
                            <polygon id="Fill-27" fill="#FFFFFF" mask="url(#mask-10)" points="-6.63225641 16.1632049 25.2893846 16.1632049 25.2893846 -6.63307407 -6.63225641 -6.63307407"></polygon>
                        </g>
                        <g id="Group-32" transform="translate(56.025641, 55.910738)">
                            <mask id="mask-12" fill="white">
                                <use xlink:href="#path-11"></use>
                            </mask>
                            <g id="Clip-31"></g>
                            <polygon id="Fill-30" fill="#FFFFFF" mask="url(#mask-12)" points="-6.71796581 17.1876691 12.1115641 17.1876691 12.1115641 -6.71148889 -6.71796581 -6.71148889"></polygon>
                        </g>
                        <g id="Group-35" transform="translate(57.401709, 63.323084)">
                            <mask id="mask-14" fill="white">
                                <use xlink:href="#path-13"></use>
                            </mask>
                            <g id="Clip-34"></g>
                            <polygon id="Fill-33" fill="#FFFFFF" mask="url(#mask-14)" points="-6.75492308 15.9950617 24.9567692 15.9950617 24.9567692 -6.6808642 -6.75492308 -6.6808642"></polygon>
                        </g>
                    </g>
                </g>
            </g>
        </g>
    </g>
</svg>