<?xml version="1.0" encoding="UTF-8"?>
<svg width="18px" height="19px" viewBox="0 0 18 19" version="1.1" xmlns="http://www.w3.org/2000/svg" xmlns:xlink="http://www.w3.org/1999/xlink">
    <!-- Generator: Sketch 47.1 (45422) - http://www.bohemiancoding.com/sketch -->
    <title>Group 34</title>
    <desc>Created with Sketch.</desc>
    <defs></defs>
    <g id="Integrate" stroke="none" stroke-width="1" fill="none" fill-rule="evenodd">
        <g id="Reviews-PG-Copy-6" transform="translate(-278.000000, -567.000000)">
            <g id="Group-2" transform="translate(88.000000, 159.000000)">
                <g id="Group-56-Copy-3" transform="translate(179.000000, 397.000000)">
                    <g id="Group-34" transform="translate(11.000000, 11.000000)">
                        <path d="M17.64,9.84090909 C17.64,9.20272727 17.5827273,8.58909091 17.4763636,8 L9,8 L9,11.4813636 L13.8436364,11.4813636 C13.635,12.6063636 13.0009091,13.5595455 12.0477273,14.1977273 L12.0477273,16.4559091 L14.9563636,16.4559091 C16.6581818,14.8890909 17.64,12.5818182 17.64,9.84090909 L17.64,9.84090909 Z" id="Shape" fill="#4285F4"></path>
                        <path d="M9.04272727,18.29 C11.4727273,18.29 13.51,17.4840909 14.9990909,16.1095455 L12.0904545,13.8513636 C11.2845455,14.3913636 10.2536364,14.7104545 9.04272727,14.7104545 C6.69863636,14.7104545 4.71454545,13.1272727 4.00681818,11 L1,11 L1,13.3318182 C2.48090909,16.2731818 5.52454545,18.29 9.04272727,18.29 L9.04272727,18.29 Z" id="Shape" fill="#34A853"></path>
                        <path d="M3.96409091,10.7518182 C3.78409091,10.2118182 3.68181818,9.635 3.68181818,9.04181818 C3.68181818,8.44863636 3.78409091,7.87181818 3.96409091,7.33181818 L3.96409091,5 L0.957272727,5 C0.347727273,6.215 0,7.58954545 0,9.04181818 C0,10.4940909 0.347727273,11.8686364 0.957272727,13.0836364 L3.96409091,10.7518182 L3.96409091,10.7518182 Z" id="Shape" fill="#FBBC05"></path>
                        <path d="M9.04272727,3.57954545 C10.3640909,3.57954545 11.5504545,4.03363636 12.4831818,4.92545455 L15.0645455,2.34409091 C13.5059091,0.891818182 11.4686364,0 9.04272727,0 C5.52454545,0 2.48090909,2.01681818 1,4.95818182 L4.00681818,7.29 C4.71454545,5.16272727 6.69863636,3.57954545 9.04272727,3.57954545 L9.04272727,3.57954545 Z" id="Shape" fill="#EA4335"></path>
                    </g>
                </g>
            </g>
        </g>
    </g>
</svg>